<?xml version="1.0" encoding="utf-8"?>
<!-- Generator: Adobe Illustrator 22.1.0, SVG Export Plug-In . SVG Version: 6.00 Build 0)  -->
<svg version="1.1" id="logo_1_" xmlns="http://www.w3.org/2000/svg" xmlns:xlink="http://www.w3.org/1999/xlink" x="0px" y="0px"
	 viewBox="0 0 237 19" style="enable-background:new 0 0 237 19;" xml:space="preserve">
<style type="text/css">
	.st0{fill-rule:evenodd;clip-rule:evenodd;fill:#222222;}
</style>
<g id="logo">
	<g>
		<path class="st0" d="M7.1,1.2L-0.1,18h4.5l1.2-3h7.3l1.2,3h4.7L11.6,1.2H7.1z M6.9,11.7l2.4-6l2.3,6H6.9z M27.1,13.3L22.9,1.2
			h-4.7L24.7,18h4.6l6.6-16.8h-4.5L27.1,13.3z M43.4,11.3l8,0V7.8h-8V4.7h8.9V1.2H39V18h13.5v-3.5h-9.1V11.3z M67.8,11.3L60.1,1.2
			h-3.9V18h4.1V7.9L68,18h3.8V1.2h-4.1L67.8,11.3z M87,11.1c0,1.1-0.3,1.9-0.9,2.6c-0.6,0.6-1.3,0.9-2.3,0.9c-1,0-1.8-0.3-2.4-1
			c-0.6-0.6-0.9-1.5-0.9-2.5V1.2h-4.4v9.9c0,1.5,0.3,2.7,0.9,3.8c0.6,1.1,1.5,1.9,2.7,2.5c1.2,0.6,2.5,0.9,4,0.9
			c1.5,0,2.9-0.3,4-0.9c1.1-0.6,2-1.4,2.6-2.5c0.6-1.1,0.9-2.4,0.9-3.8V1.2H87V11.1z M100,11.3l8,0V7.8h-8V4.7h8.9V1.2H95.6V18h13.5
			v-3.5H100V11.3z M120.8,18h2.3v-7.1h7.8V8.8h-7.8V3.3h8.6l0-2.1h-10.9V18z M140.1,1.2L132.7,18h2.4l1.8-4.1h8.9l1.8,4.1h2.5
			l-7.4-16.8H140.1z M137.8,11.8l3.5-8.2l3.6,8.2H137.8z M161.8,9.4c-0.7-0.3-1.6-0.7-2.8-1c-0.9-0.3-1.6-0.5-2.1-0.8
			c-0.5-0.2-0.9-0.5-1.3-0.9c-0.4-0.4-0.5-0.9-0.5-1.5c0-0.7,0.3-1.2,0.9-1.5c0.6-0.4,1.4-0.6,2.3-0.6c0.7,0,1.5,0.1,2.3,0.4
			c0.8,0.2,1.7,0.6,2.4,1.1l1-2.1c-0.8-0.5-1.6-0.9-2.6-1.2c-1-0.3-2-0.4-3-0.4c-1.2,0-2.2,0.2-3.1,0.6c-0.9,0.4-1.6,0.9-2.1,1.6
			c-0.5,0.7-0.7,1.5-0.7,2.4c0,1,0.2,1.8,0.7,2.5c0.5,0.6,1.1,1.1,1.8,1.4c0.7,0.3,1.6,0.6,2.7,1c0.9,0.3,1.6,0.5,2.2,0.7
			c0.5,0.2,1,0.5,1.3,0.9c0.4,0.4,0.5,0.9,0.5,1.5c0,0.8-0.3,1.3-1,1.8c-0.6,0.4-1.5,0.7-2.7,0.7c-0.9,0-1.9-0.2-2.9-0.6
			c-1-0.4-1.9-1-2.7-1.8l-1,2c0.8,0.8,1.9,1.4,3,1.9c1.2,0.5,2.4,0.7,3.6,0.7c1.2,0,2.3-0.2,3.2-0.6c0.9-0.4,1.7-0.9,2.2-1.7
			c0.5-0.7,0.8-1.6,0.8-2.5c0-1-0.2-1.9-0.7-2.5C163.1,10.2,162.5,9.8,161.8,9.4z M181.3,8.7h-9.6V1.2h-2.3V18h2.3v-7.2h9.6V18h2.3
			V1.2h-2.3V8.7z M189.6,18h2.3V1.2h-2.3V18z M209.6,2.2c-1.4-0.8-2.8-1.1-4.5-1.1c-1.6,0-3.1,0.4-4.5,1.1c-1.3,0.8-2.4,1.8-3.2,3.1
			c-0.8,1.3-1.2,2.7-1.2,4.3c0,1.6,0.4,3,1.2,4.3c0.8,1.3,1.9,2.4,3.2,3.1c1.4,0.8,2.8,1.1,4.5,1.1c1.6,0,3.1-0.4,4.5-1.1
			c1.4-0.8,2.4-1.8,3.2-3.1c0.8-1.3,1.2-2.8,1.2-4.3c0-1.6-0.4-3-1.2-4.3C212,4,210.9,2.9,209.6,2.2z M210.7,12.8
			c-0.6,1-1.4,1.8-2.4,2.4c-1,0.6-2.1,0.9-3.2,0.9c-1.2,0-2.3-0.3-3.3-0.9c-1-0.6-1.8-1.4-2.4-2.4c-0.6-1-0.9-2.1-0.9-3.3
			c0-1.2,0.3-2.3,0.9-3.3c0.6-1,1.4-1.8,2.4-2.3c1-0.6,2.1-0.9,3.3-0.9c1.2,0,2.2,0.3,3.2,0.9s1.8,1.4,2.4,2.3
			c0.6,1,0.9,2.1,0.9,3.3C211.6,10.8,211.3,11.8,210.7,12.8z M230,1.2v13l-9.6-13H218V18h2.3V5l9.6,13h2.3V1.2H230z"/>
	</g>
</g>
</svg>
